<svg id="Layer_1" data-name="Layer 1" xmlns="http://www.w3.org/2000/svg" viewBox="0 0 512 416.13"><defs><style>.cls-1{fill:#1b4145;}.cls-2{fill:#609399;}.cls-3{fill:#6fc5d6;}.cls-4{fill:#b4e5ea;}.cls-5,.cls-6{font-size:256px;fill:#fff;}.cls-5{font-family:Roboto-Regular, Roboto;}.cls-6{font-family:Roboto-Thin, Roboto;}</style></defs><title>Artboard 1</title><path class="cls-1" d="M512,382v34.13c-42.93,0-101.83-38.29-164.07-38.29-36.67,0-59.65,15.13-73.47,30.25H256l-22.76-106Z"/><path class="cls-2" d="M256,302.08v106H237.53c-13.81-15.12-36.8-30.25-73.47-30.25-62.24,0-121.14,38.29-164.07,38.29V382Z"/><path class="cls-3" d="M512,38.29V382c-42.93,0-101.83-38.29-164.07-38.29-36.67,0-59.65,15.13-73.47,30.25H256L210.49,217.24,256,60.52S274.59,0,347.93,0C410.17,0,469.07,38.29,512,38.29Z"/><path class="cls-4" d="M256,60.52V374H237.53c-13.81-15.13-36.8-30.25-73.47-30.25C101.83,343.71,42.93,382,0,382V38.29C42.93,38.29,101.83,0,164.07,0,237.41,0,256,60.52,256,60.52Z"/><text class="cls-5" transform="translate(62 282.88)">b</text><text class="cls-6" transform="translate(274 282.88)">m</text></svg>