<?xml version="1.0" encoding="utf-8"?>
<!-- Generator: Adobe Illustrator 21.1.0, SVG Export Plug-In . SVG Version: 6.00 Build 0)  -->
<svg version="1.1" id="Layer_1" xmlns="http://www.w3.org/2000/svg" xmlns:xlink="http://www.w3.org/1999/xlink" x="0px" y="0px"
	 viewBox="0 0 512 416.1" style="enable-background:new 0 0 512 416.1;" xml:space="preserve">
<style type="text/css">
	.st0{fill:#1B4145;}
	.st1{fill:#609399;}
	.st2{fill:#6FC5D6;}
	.st3{fill:#B4E5EA;}
	.st4{enable-background:new    ;}
	.st5{fill:#FFFFFF;}
</style>
<title>Artboard 1</title>
<path class="st0" d="M512,382v34.1c-42.9,0-101.8-38.3-164.1-38.3c-36.7,0-59.6,15.1-73.5,30.3H256l-22.8-106L512,382z"/>
<path class="st1" d="M256,302.1v106h-18.5c-13.8-15.1-36.8-30.3-73.5-30.3c-62.2,0-121.1,38.3-164.1,38.3V382L256,302.1z"/>
<path class="st2" d="M512,38.3V382c-42.9,0-101.8-38.3-164.1-38.3c-36.7,0-59.6,15.1-73.5,30.3H256l-45.5-156.7L256,60.5
	c0,0,18.6-60.5,91.9-60.5C410.2,0,469.1,38.3,512,38.3z"/>
<path class="st3" d="M256,60.5V374h-18.5c-13.8-15.1-36.8-30.3-73.5-30.3C101.8,343.7,42.9,382,0,382V38.3
	C42.9,38.3,101.8,0,164.1,0C237.4,0,256,60.5,256,60.5z"/>
<g class="st4">
	<path class="st5" d="M194,216.8c0,20.7-4.8,37.3-14.3,49.8c-9.5,12.5-22.3,18.8-38.3,18.8c-17.1,0-30.3-6-39.6-18.1l-1.1,15.6H79.5
		v-192h23.1v71.6c9.3-11.6,22.2-17.4,38.6-17.4c16.4,0,29.3,6.2,38.7,18.6c9.4,12.4,14.1,29.4,14.1,51V216.8z M170.9,214.1
		c0-15.8-3-27.9-9.1-36.5c-6.1-8.6-14.8-12.9-26.3-12.9c-15.3,0-26.2,7.1-32.9,21.3v58.5c7.1,14.2,18.1,21.3,33.1,21.3
		c11.1,0,19.7-4.3,25.9-12.9C167.8,244.3,170.9,231.4,170.9,214.1z"/>
</g>
<g class="st4">
	<path class="st5" d="M392.3,282.9h-6.8v-90.8c-0.1-13.6-3.1-23.7-8.9-30.3c-5.9-6.6-15.2-9.9-28.1-9.9c-14.8,0-27,6.5-36.4,19.6
		c-5.6,7.8-9.3,16.5-11.1,26v85.4h-6.9V147.6h6.9v32c4.6-11,11.1-19.5,19.6-25.5s17.9-9,28.3-9c11.3,0,20.6,2.5,27.8,7.5
		c7.2,5,11.9,13.2,14.2,24.5c4-9.8,10.5-17.5,19.5-23.3c9-5.8,19.1-8.7,30.3-8.7c14.6,0,25.4,4.1,32.6,12.4s10.7,20.6,10.8,37.1
		v88.3h-6.8v-87.7c0-14.8-3-25.8-8.9-32.9c-6-7.1-15.3-10.6-28.1-10.4c-16.4,0.3-29.4,6.8-39,19.6c-5.5,7.4-8.5,14.6-9,21.5V282.9z"
		/>
</g>
</svg>
